
        <svg xmlns="http://www.w3.org/2000/svg" xmlns:xlink="http://www.w3.org/1999/xlink" version="1.1" width="128" 
        height="128" viewBox="0 0 2468.7113133165826 3224.4283012105984">
			
			<g transform="scale(11.221415060529921) translate(10, 10)">
				<defs id="SvgjsDefs1078"><linearGradient id="SvgjsLinearGradient1085"><stop id="SvgjsStop1086" stop-color="#616161" offset="0"></stop><stop id="SvgjsStop1087" stop-color="#e6e7e8" offset="0.5"></stop><stop id="SvgjsStop1088" stop-color="#616161" offset="1"></stop></linearGradient><linearGradient id="SvgjsLinearGradient1089"><stop id="SvgjsStop1090" stop-color="#616161" offset="0"></stop><stop id="SvgjsStop1091" stop-color="#e6e7e8" offset="0.5"></stop><stop id="SvgjsStop1092" stop-color="#616161" offset="1"></stop></linearGradient><linearGradient id="SvgjsLinearGradient1093"><stop id="SvgjsStop1094" stop-color="#616161" offset="0"></stop><stop id="SvgjsStop1095" stop-color="#e6e7e8" offset="0.5"></stop><stop id="SvgjsStop1096" stop-color="#616161" offset="1"></stop></linearGradient></defs><g id="SvgjsG1079" featureKey="symbolFeature-0" transform="matrix(1.4554625638153438,0,0,1.4554625638153438,35.73191313414267,-12.26808686585733)" fill="url(#SvgjsLinearGradient1085)"><title xmlns="http://www.w3.org/2000/svg">geom</title><path xmlns="http://www.w3.org/2000/svg" d="M50.173,80.571H38.827a.243.243,0,0,1-.077-.012L27.958,77.052a.255.255,0,0,1-.07-.036l-9.18-6.669a.246.246,0,0,1-.055-.055l-6.669-9.18a.255.255,0,0,1-.036-.07L8.441,50.25a.243.243,0,0,1-.012-.077V38.827a.243.243,0,0,1,.012-.077l3.506-10.792a.255.255,0,0,1,.036-.07l6.669-9.18a.246.246,0,0,1,.055-.055l9.18-6.669a.255.255,0,0,1,.07-.036L38.75,8.441a.243.243,0,0,1,.077-.012H50.173a.243.243,0,0,1,.077.012l10.792,3.506a.255.255,0,0,1,.07.036l9.18,6.669a.246.246,0,0,1,.055.055l6.669,9.18a.255.255,0,0,1,.036.07L80.559,38.75a.243.243,0,0,1,.012.077V50.173a.243.243,0,0,1-.012.077L77.052,61.042a.255.255,0,0,1-.036.07l-6.669,9.18a.246.246,0,0,1-.055.055l-9.18,6.669a.255.255,0,0,1-.07.036L50.25,80.559A.243.243,0,0,1,50.173,80.571Zm-11.307-.5H50.134L60.85,76.589l9.116-6.623,6.623-9.116,3.482-10.716V38.866L76.589,28.15l-6.623-9.116L60.85,12.411,50.134,8.929H38.866L28.15,12.411l-9.116,6.623L12.411,28.15,8.929,38.866V50.134L12.411,60.85l6.623,9.116,9.116,6.623Z"></path><path xmlns="http://www.w3.org/2000/svg" d="M49.225,74.583a.251.251,0,0,1-.17-.066L44.5,70.306l-4.555,4.21a.256.256,0,0,1-.209.063.251.251,0,0,1-.179-.125l-3.031-5.412-5.634,2.6a.254.254,0,0,1-.218,0,.248.248,0,0,1-.132-.174l-1.211-6.083-6.16.728a.246.246,0,0,1-.206-.071.249.249,0,0,1-.071-.206l.728-6.16-6.083-1.211a.25.25,0,0,1-.178-.35l2.6-5.634-5.412-3.031a.25.25,0,0,1-.062-.388l4.21-4.555-4.21-4.555a.25.25,0,0,1,.062-.388l5.412-3.031-2.6-5.634a.25.25,0,0,1,.178-.35l6.083-1.211-.728-6.16a.249.249,0,0,1,.071-.206.234.234,0,0,1,.206-.071l6.16.728,1.211-6.083a.248.248,0,0,1,.132-.174.254.254,0,0,1,.218,0l5.634,2.6,3.031-5.412a.25.25,0,0,1,.388-.062l4.555,4.21,4.555-4.21a.25.25,0,0,1,.388.062l3.031,5.412,5.634-2.6a.25.25,0,0,1,.35.178l1.211,6.083,6.16-.728a.238.238,0,0,1,.206.071.249.249,0,0,1,.071.206l-.728,6.16,6.083,1.211a.25.25,0,0,1,.178.35l-2.6,5.634,5.412,3.031a.25.25,0,0,1,.062.388L70.306,44.5l4.21,4.555a.25.25,0,0,1-.062.388l-5.412,3.031,2.6,5.634a.25.25,0,0,1-.178.35l-6.083,1.211.728,6.16a.249.249,0,0,1-.071.206.252.252,0,0,1-.206.071l-6.16-.728-1.211,6.083a.25.25,0,0,1-.35.178l-5.634-2.6-3.031,5.412a.251.251,0,0,1-.179.125ZM44.5,69.716a.25.25,0,0,1,.17.066l4.492,4.152L52.151,68.6a.249.249,0,0,1,.323-.1l5.556,2.56,1.194-6a.252.252,0,0,1,.274-.2l6.074.718L64.854,59.5a.249.249,0,0,1,.2-.274l6-1.194-2.56-5.556a.25.25,0,0,1,.1-.323l5.336-2.989L69.782,44.67a.251.251,0,0,1,0-.34l4.152-4.492L68.6,36.849a.25.25,0,0,1-.1-.323l2.56-5.556-6-1.194a.249.249,0,0,1-.2-.274l.718-6.074-6.074.718a.252.252,0,0,1-.274-.2l-1.194-6-5.556,2.56a.251.251,0,0,1-.323-.1l-2.989-5.336L44.67,19.218a.25.25,0,0,1-.34,0l-4.492-4.152L36.849,20.4a.253.253,0,0,1-.323.1l-5.556-2.56-1.194,6a.248.248,0,0,1-.274.2l-6.074-.718.718,6.074a.249.249,0,0,1-.2.274l-6,1.194,2.56,5.556a.25.25,0,0,1-.1.323l-5.336,2.989,4.152,4.492a.251.251,0,0,1,0,.34l-4.152,4.492L20.4,52.151a.25.25,0,0,1,.1.323l-2.56,5.556,6,1.194a.249.249,0,0,1,.2.274l-.718,6.074,6.074-.718a.249.249,0,0,1,.274.2l1.194,6,5.556-2.56a.25.25,0,0,1,.323.1l2.989,5.336,4.492-4.152A.25.25,0,0,1,44.5,69.716Z"></path><path xmlns="http://www.w3.org/2000/svg" d="M44.5,80.483a.25.25,0,0,1-.2-.1l-4.57-5.8-6.138,4.1a.254.254,0,0,1-.216.03.251.251,0,0,1-.157-.151l-2.556-6.924-7.1,2a.247.247,0,0,1-.215-.039.251.251,0,0,1-.1-.192l-.291-7.375-7.375-.291a.251.251,0,0,1-.231-.318l2-7.1-6.924-2.556a.25.25,0,0,1-.122-.373l4.1-6.138-5.8-4.57a.25.25,0,0,1,0-.393l5.8-4.57-4.1-6.138a.25.25,0,0,1,.122-.373l6.924-2.556-2-7.1a.251.251,0,0,1,.231-.318l7.375-.291.291-7.375a.251.251,0,0,1,.1-.192.247.247,0,0,1,.215-.039l7.1,2,2.556-6.924a.251.251,0,0,1,.157-.151.244.244,0,0,1,.216.03l6.138,4.1,4.57-5.8a.259.259,0,0,1,.393,0l4.57,5.8,6.138-4.1a.244.244,0,0,1,.216-.03.251.251,0,0,1,.157.151l2.556,6.924,7.1-2a.248.248,0,0,1,.215.039.251.251,0,0,1,.1.192l.291,7.375,7.375.291a.251.251,0,0,1,.231.318l-2,7.1,6.924,2.556a.25.25,0,0,1,.122.373l-4.1,6.138,5.8,4.57a.25.25,0,0,1,0,.393l-5.8,4.57,4.1,6.138a.25.25,0,0,1-.122.373l-6.924,2.556,2,7.1a.251.251,0,0,1-.231.318l-7.375.291-.291,7.375a.251.251,0,0,1-.1.192.248.248,0,0,1-.215.039l-7.1-2-2.556,6.924a.25.25,0,0,1-.373.122l-6.138-4.1-4.57,5.8A.25.25,0,0,1,44.5,80.483Zm-4.713-6.477a.249.249,0,0,1,.2.1L44.5,79.83,49.017,74.1a.249.249,0,0,1,.335-.053L55.417,78.1l2.526-6.844a.25.25,0,0,1,.3-.154l7.021,1.979.287-7.289a.251.251,0,0,1,.24-.24l7.289-.287L71.1,58.246a.25.25,0,0,1,.154-.3L78.1,55.417l-4.053-6.066a.25.25,0,0,1,.053-.335L79.83,44.5,74.1,39.983a.25.25,0,0,1-.053-.335L78.1,33.583l-6.844-2.526a.25.25,0,0,1-.154-.3l1.979-7.021-7.289-.287a.251.251,0,0,1-.24-.24l-.287-7.289L58.246,17.9a.25.25,0,0,1-.3-.154L55.417,10.9l-6.066,4.053a.249.249,0,0,1-.335-.053L44.5,9.17,39.983,14.9a.251.251,0,0,1-.335.053L33.583,10.9l-2.526,6.844a.25.25,0,0,1-.3.154l-7.021-1.979-.287,7.289a.251.251,0,0,1-.24.24l-7.289.287L17.9,30.754a.25.25,0,0,1-.154.3L10.9,33.583l4.053,6.066a.25.25,0,0,1-.053.335L9.17,44.5,14.9,49.017a.25.25,0,0,1,.053.335L10.9,55.417l6.844,2.526a.25.25,0,0,1,.154.3l-1.979,7.021,7.289.287a.251.251,0,0,1,.24.24l.287,7.289L30.754,71.1a.25.25,0,0,1,.3.154L33.583,78.1l6.066-4.053A.249.249,0,0,1,39.787,74.006Z"></path><path xmlns="http://www.w3.org/2000/svg" d="M44.5,70.131a.25.25,0,0,1-.229-.148l-2.807-6.32-4.622,5.143a.253.253,0,0,1-.263.071.25.25,0,0,1-.171-.212l-.716-6.877L29.706,65.25a.247.247,0,0,1-.272-.014.25.25,0,0,1-.1-.254l1.444-6.763-6.763,1.444a.25.25,0,0,1-.269-.37l3.463-5.986-6.877-.716a.25.25,0,0,1-.141-.435l5.143-4.622-6.32-2.807a.25.25,0,0,1,0-.457l6.32-2.807-5.143-4.622a.25.25,0,0,1,.141-.435l6.877-.716L23.75,29.706a.249.249,0,0,1,.014-.272.255.255,0,0,1,.254-.1l6.763,1.444-1.444-6.763a.25.25,0,0,1,.1-.254.247.247,0,0,1,.272-.014l5.986,3.463.716-6.877a.25.25,0,0,1,.435-.141l4.622,5.143,2.807-6.32a.26.26,0,0,1,.457,0l2.807,6.32,4.622-5.143a.246.246,0,0,1,.263-.071.25.25,0,0,1,.171.212l.716,6.877,5.986-3.463a.25.25,0,0,1,.37.269l-1.444,6.763,6.763-1.444a.25.25,0,0,1,.269.37l-3.463,5.986,6.877.716a.25.25,0,0,1,.141.435l-5.143,4.622,6.32,2.807a.25.25,0,0,1,0,.457l-6.32,2.807,5.143,4.622a.25.25,0,0,1-.141.435l-6.877.716,3.463,5.986a.25.25,0,0,1-.269.37l-6.763-1.444,1.444,6.763a.25.25,0,0,1-.37.269l-5.986-3.463-.716,6.877a.25.25,0,0,1-.435.141l-4.622-5.143-2.807,6.32A.25.25,0,0,1,44.5,70.131Zm-2.963-7.172.039,0a.251.251,0,0,1,.189.146L44.5,69.266l2.735-6.158a.251.251,0,0,1,.189-.146.257.257,0,0,1,.225.08l4.5,5.011.7-6.7a.249.249,0,0,1,.135-.2.245.245,0,0,1,.238.006l5.833,3.374-1.408-6.589a.25.25,0,0,1,.3-.3l6.589,1.408-3.374-5.833a.25.25,0,0,1,.19-.374l6.7-.7-5.011-4.5a.25.25,0,0,1,.065-.415L69.266,44.5l-6.158-2.735a.25.25,0,0,1-.065-.415l5.011-4.5-6.7-.7a.25.25,0,0,1-.19-.374l3.374-5.833-6.589,1.408a.254.254,0,0,1-.229-.068.25.25,0,0,1-.068-.229l1.408-6.589-5.833,3.374a.25.25,0,0,1-.374-.19l-.7-6.7-4.5,5.011a.25.25,0,0,1-.415-.065L44.5,19.734l-2.735,6.158a.25.25,0,0,1-.415.065l-4.5-5.011-.7,6.7a.249.249,0,0,1-.135.2.253.253,0,0,1-.238-.006l-5.833-3.374,1.408,6.589a.25.25,0,0,1-.068.229.256.256,0,0,1-.229.068l-6.589-1.408,3.374,5.833a.25.25,0,0,1-.19.374l-6.7.7,5.011,4.5a.25.25,0,0,1-.065.415L19.734,44.5l6.158,2.735a.25.25,0,0,1,.065.415l-5.011,4.5,6.7.7a.25.25,0,0,1,.19.374l-3.374,5.833,6.589-1.408a.253.253,0,0,1,.229.068.25.25,0,0,1,.068.229l-1.408,6.589,5.833-3.374a.25.25,0,0,1,.374.19l.7,6.7,4.5-5.011A.25.25,0,0,1,41.537,62.959Z"></path><path xmlns="http://www.w3.org/2000/svg" d="M47.456,63.41a.251.251,0,0,1-.237-.169l-2.819-8.3-2.617,8.293a.25.25,0,0,1-.488-.072l-.122-8.733-5.047,7.048a.25.25,0,0,1-.442-.22l2.578-8.312-6.974,5.113a.25.25,0,0,1-.352-.346l5.016-7.077-8.208,2.677a.25.25,0,0,1-.227-.438l6.952-5.15-8.63-.021a.25.25,0,0,1-.078-.487l8.2-2.718-8.2-2.718a.25.25,0,0,1,.078-.487l8.63-.021-6.952-5.15a.25.25,0,0,1,.227-.438l8.208,2.677-5.016-7.077a.25.25,0,0,1,.352-.346l6.974,5.113-2.578-8.312a.25.25,0,0,1,.442-.22l5.047,7.048.122-8.733a.25.25,0,0,1,.488-.072L44.4,34.058l2.819-8.3a.245.245,0,0,1,.279-.166.25.25,0,0,1,.208.249l-.08,8.727,5.25-7.052a.25.25,0,0,1,.438.229l-2.777,8.307,7.177-5.115a.25.25,0,0,1,.346.352l-5.213,7.073,8.411-2.678a.25.25,0,0,1,.222.441L54.33,41.273l8.831.021a.25.25,0,0,1,.08.487L55.274,44.5l7.967,2.719a.25.25,0,0,1-.08.487l-8.831.021,7.149,5.147a.25.25,0,0,1-.222.441l-8.411-2.678,5.213,7.073a.25.25,0,0,1-.346.352l-7.177-5.115,2.777,8.307a.25.25,0,0,1-.438.229l-5.25-7.052.08,8.727a.249.249,0,0,1-.25.252Zm-3.065-9.521a.25.25,0,0,1,.237.169l2.564,7.547-.072-7.936a.25.25,0,0,1,.451-.152l4.775,6.414-2.526-7.554a.25.25,0,0,1,.382-.283l6.527,4.652-4.741-6.432a.25.25,0,0,1,.277-.387l7.649,2.436-6.5-4.681a.25.25,0,0,1,.146-.453l8.107-.02-7.245-2.472a.25.25,0,0,1,0-.474l7.245-2.472-8.107-.02a.25.25,0,0,1-.146-.453l6.5-4.681-7.649,2.436a.25.25,0,0,1-.277-.387l4.741-6.432L50.2,36.906a.25.25,0,0,1-.382-.283l2.526-7.554L47.57,35.482a.25.25,0,0,1-.451-.152l.072-7.936-2.564,7.547a.262.262,0,0,1-.24.169.249.249,0,0,1-.235-.175l-2.379-7.542-.111,7.942a.25.25,0,0,1-.453.142L36.62,29.069l2.345,7.559a.25.25,0,0,1-.387.276l-6.342-4.65L36.8,38.69a.25.25,0,0,1-.282.382l-7.464-2.435,6.322,4.684a.25.25,0,0,1-.148.451l-7.848.019,7.455,2.472a.25.25,0,0,1,0,.475l-7.455,2.472,7.848.019a.25.25,0,0,1,.148.451l-6.322,4.684,7.464-2.435a.248.248,0,0,1,.279.089.251.251,0,0,1,0,.293l-4.562,6.436,6.342-4.65a.25.25,0,0,1,.387.276L36.62,59.931l4.589-6.409a.25.25,0,0,1,.453.142l.111,7.942,2.379-7.542A.278.278,0,0,1,44.391,53.889Z"></path><path xmlns="http://www.w3.org/2000/svg" d="M44.5,54.606a.25.25,0,0,1-.247-.208l-.7-4.172-1.876,3.76a.25.25,0,0,1-.471-.148l.612-4.176-2.934,2.987a.25.25,0,0,1-.4-.286l1.86-3.774-3.7,1.926a.25.25,0,0,1-.294-.4l2.923-3.006-4.1.679a.245.245,0,0,1-.278-.167.25.25,0,0,1,.12-.3l3.7-1.947-4.1-.631a.25.25,0,0,1,0-.494l4.1-.7-3.693-1.877a.25.25,0,0,1,.15-.47l4.107.611-2.921-2.936a.25.25,0,0,1,.29-.4l3.7,1.86-1.86-3.7a.25.25,0,0,1,.4-.29l2.936,2.921-.611-4.107a.25.25,0,0,1,.47-.15l1.877,3.693.7-4.1a.25.25,0,0,1,.494,0l.631,4.1,1.947-3.7a.25.25,0,0,1,.468.158l-.679,4.1,3.006-2.923a.25.25,0,0,1,.4.294l-1.926,3.7,3.774-1.86a.25.25,0,0,1,.286.4l-2.987,2.934,4.176-.612a.25.25,0,0,1,.148.471l-3.76,1.876,4.172.7a.25.25,0,0,1,0,.494l-4.168.631,3.763,1.946a.25.25,0,0,1,.123.3.246.246,0,0,1-.277.168l-4.172-.679,2.989,3a.25.25,0,0,1,.023.326.248.248,0,0,1-.319.07l-4.022-2.181,2.181,4.022a.25.25,0,0,1-.4.3l-3-2.989.679,4.172a.25.25,0,0,1-.469.155l-1.946-3.763-.631,4.168A.244.244,0,0,1,44.5,54.606Zm-.827-5.43.037,0a.25.25,0,0,1,.209.206l.567,3.384L45,49.389a.25.25,0,0,1,.207-.209.245.245,0,0,1,.263.132l1.579,3.053L46.5,48.98a.25.25,0,0,1,.423-.217l2.341,2.33-1.77-3.263a.25.25,0,0,1,.339-.339l3.263,1.77-2.33-2.341a.25.25,0,0,1,.217-.423l3.384.551-3.053-1.579A.25.25,0,0,1,49.389,45l3.38-.512-3.384-.567a.25.25,0,0,1-.07-.47l3.05-1.522-3.388.5a.253.253,0,0,1-.26-.136.25.25,0,0,1,.049-.29l2.423-2.379-3.062,1.509a.25.25,0,0,1-.332-.339l1.562-3-2.438,2.372a.25.25,0,0,1-.421-.22l.551-3.328-1.58,3A.25.25,0,0,1,45,39.531l-.512-3.325-.567,3.329a.25.25,0,0,1-.209.205.246.246,0,0,1-.26-.134l-1.523-3,.5,3.333a.25.25,0,0,1-.423.214l-2.381-2.37,1.509,3a.25.25,0,0,1-.336.336l-3-1.509L40.157,42a.249.249,0,0,1,.046.289.245.245,0,0,1-.26.134l-3.333-.5,3,1.523a.25.25,0,0,1-.071.469l-3.329.567L39.531,45a.25.25,0,0,1,.079.468l-3,1.58,3.328-.551a.25.25,0,0,1,.22.421l-2.372,2.438,3-1.562a.25.25,0,0,1,.339.332l-1.509,3.062L42,48.765a.247.247,0,0,1,.29-.049.251.251,0,0,1,.136.26l-.5,3.388,1.522-3.05A.25.25,0,0,1,43.673,49.176Z"></path><path xmlns="http://www.w3.org/2000/svg" d="M44.5,49.348A4.848,4.848,0,1,1,49.348,44.5,4.854,4.854,0,0,1,44.5,49.348Zm0-9.2A4.348,4.348,0,1,0,48.848,44.5,4.353,4.353,0,0,0,44.5,40.152Z"></path><path xmlns="http://www.w3.org/2000/svg" d="M44.5,48.274A3.774,3.774,0,1,1,48.274,44.5,3.778,3.778,0,0,1,44.5,48.274Zm0-7.048A3.274,3.274,0,1,0,47.774,44.5,3.278,3.278,0,0,0,44.5,41.226Z"></path><path xmlns="http://www.w3.org/2000/svg" d="M44.5,43.411a.875.875,0,1,1,.875-.875A.876.876,0,0,1,44.5,43.411Zm0-1.25a.375.375,0,1,0,.375.375A.376.376,0,0,0,44.5,42.16Z"></path><path xmlns="http://www.w3.org/2000/svg" d="M44.5,47.34a.875.875,0,1,1,.875-.875A.876.876,0,0,1,44.5,47.34Zm0-1.25a.375.375,0,1,0,.375.375A.376.376,0,0,0,44.5,46.089Z"></path><path xmlns="http://www.w3.org/2000/svg" d="M46.465,45.375a.875.875,0,1,1,.875-.875A.876.876,0,0,1,46.465,45.375Zm0-1.251a.375.375,0,1,0,.375.375A.376.376,0,0,0,46.465,44.125Z"></path><path xmlns="http://www.w3.org/2000/svg" d="M42.535,45.375a.875.875,0,1,1,.875-.875A.876.876,0,0,1,42.535,45.375Zm0-1.251a.375.375,0,1,0,.375.375A.376.376,0,0,0,42.535,44.125Z"></path><path xmlns="http://www.w3.org/2000/svg" d="M45.889,43.985a.875.875,0,1,1,.619-.256A.87.87,0,0,1,45.889,43.985Zm0-1.25a.375.375,0,1,0,.266.11A.374.374,0,0,0,45.889,42.735Z"></path><path xmlns="http://www.w3.org/2000/svg" d="M43.111,46.764a.875.875,0,1,1,.619-.256A.873.873,0,0,1,43.111,46.764Zm0-1.25a.375.375,0,1,0,.265.11A.374.374,0,0,0,43.111,45.514Z"></path><path xmlns="http://www.w3.org/2000/svg" d="M45.889,46.764a.875.875,0,1,1,.619-.256A.872.872,0,0,1,45.889,46.764Zm0-1.25a.375.375,0,1,0,.266.11A.374.374,0,0,0,45.889,45.514Z"></path><path xmlns="http://www.w3.org/2000/svg" d="M43.111,43.985a.875.875,0,1,1,.619-.256A.871.871,0,0,1,43.111,43.985Zm0-1.25a.375.375,0,1,0,.265.11A.374.374,0,0,0,43.111,42.735Z"></path><path xmlns="http://www.w3.org/2000/svg" d="M44.5,46.059A1.559,1.559,0,1,1,45.6,43.4h0a1.559,1.559,0,0,1-1.1,2.662Zm0-2.618a1.059,1.059,0,1,0,.75.31A1.056,1.056,0,0,0,44.5,43.441Z"></path></g><g id="SvgjsG1080" featureKey="nameFeature-0" transform="matrix(2.732240551067438,0,0,2.732240551067438,-5.464481102134876,104.23497076962042)" fill="url(#SvgjsLinearGradient1089)"><path d="M2 40 l0 -32 l3.6 0 l5.24 19.6 l-0.04 -0.4 l0 -19.2 l4 0 l0 32 l-3.6 0 l-5.24 -17.6 l0.04 0.4 l0 17.2 l-4 0 z M18.6 23.16 l0 -15.16 l4 0 l0 15.16 c0 11.56 0 13.24 2 13.24 s2 -1.68 2 -13.24 l0 -15.16 l4 0 l0 15.16 c0 12.8 0 17.24 -6 17.24 s-6 -4.44 -6 -17.24 z M33.6 30.240000000000002 l4.04 0 c0.08 5.16 0.48 6.16 1.92 6.16 c1.96 0 1.96 -1.64 1.96 -6 c0 -6.4 -7.92 -4.68 -7.92 -13.2 c0 -5 0 -9.6 6 -9.6 c4.44 0 5.64 2.52 5.92 8.56 l-4 0 c-0.16 -4.36 -0.64 -5.36 -1.92 -5.36 c-1.96 0 -1.96 2.16 -1.96 6.4 c0 6.2 7.96 4 7.96 13.2 c0 5.6 0 10 -6.04 10 c-4.64 0 -5.72 -2.76 -5.96 -10.16 z M48.8 40 l0 -32 l4 0 l0 12.68 l4 -12.68 l4 0 l-4.8 15.2 l4.8 16.8 l-4 0 l-4 -14 l0 14 l-4 0 z M63.199999999999996 40 l0 -16.8 c0 -11.16 0 -15.56 6 -15.56 s6 4.4 6 15.56 l0 16.8 l-4 0 l0 -9.2 l-4 0 l0 9.2 l-4 0 z M67.19999999999999 27.6 l4 0 l0 -4.4 c0 -10.4 0 -12.36 -2 -12.36 s-2 1.96 -2 12.36 l0 4.4 z"></path></g><g id="SvgjsG1081" featureKey="sloganFeature-0" transform="matrix(2.103118294226525,0,0,2.103118294226525,-2.0844238854321047,224.90503278941964)" fill="url(#SvgjsLinearGradient1093)"><path d="M1.02 15.9 l-0.02 0 c0 0.5 -0.02 1.02 0 1.54 c0.02 0.64 0.06 1.28 0.1 1.92 c0 0.22 0.06 0.28 0.26 0.32 c0.42 0.1 0.82 0.12 1.24 0.12 c1.08 -0.04 2.16 0.04 3.24 0 c0.44 -0.02 0.64 0.02 1.08 -0.06 c0.4 -0.08 0.54 -0.3 0.54 -0.9 c-0.04 -0.38 -0.02 -0.54 -0.02 -1 c0 -0.66 -0.46 -0.88 -0.86 -0.86 c-0.28 0.02 -1.62 -0.02 -2.16 -0.02 c-0.9 0.02 -0.76 0.14 -0.76 -0.8 c0 -0.76 0.02 -1.74 0.02 -2.52 c0 -0.42 0.04 -0.56 0.44 -0.56 l2.5 0 c0.4 0.06 0.68 -0.22 0.68 -0.64 s0.04 -0.44 0.04 -0.86 l-0.06 -0.6 c-0.04 -0.34 -0.16 -0.46 -0.5 -0.46 c-0.22 0 -0.44 0.02 -0.66 0.04 c-0.86 0.06 -1.26 -0.06 -2.1 0 c-0.28 0 -0.32 -0.04 -0.34 -0.3 c-0.08 -0.78 0 -1.64 0.08 -2.42 c0.02 -0.32 0.1 -0.38 0.4 -0.4 l2.82 -0.02 c0.38 -0.04 0.5 -0.02 0.48 -0.4 c-0.04 -0.58 0.02 -1.18 -0.04 -1.76 c-0.04 -0.32 -0.14 -0.38 -0.5 -0.38 c-0.6 0.02 -0.74 0.02 -1.34 0.06 c-0.6 0.02 -3 0.02 -3.58 0.02 c-0.84 0 -0.9 -0.06 -0.92 0.96 c-0.04 0.8 -0.02 1.62 -0.02 2.44 c0 1.4 -0.08 6.42 -0.04 7.54 z M15.766 4.9 c-0.38 0.02 -0.76 0.08 -1.14 0.2 c-0.82 0.28 -1.56 0.84 -2.06 1.56 c-0.44 0.66 -0.62 1.44 -0.68 2.22 c-0.04 0.6 0.02 1.22 0.3 1.76 c0.3 0.58 0.82 1.08 1.26 1.56 c0.4 0.42 0.8 0.84 1.24 1.22 c0.4 0.38 0.86 0.68 1.26 1.08 c0.58 0.58 0.8 1.9 0.38 2.62 c-0.5 0.8 -1.68 0.92 -2.46 0.66 c-0.4 -0.14 -0.76 -0.44 -1.1 -0.68 c-0.2 -0.14 -0.44 -0.2 -0.58 0.04 c-0.08 0.12 -0.12 0.26 -0.16 0.38 c-0.14 0.5 -0.32 0.96 -0.34 1.5 c-0.02 0.62 1.16 0.8 1.6 0.9 c1.96 0.46 4.32 0.1 5.34 -1.84 c0.2 -0.4 0.34 -0.82 0.42 -1.26 c0.02 -0.16 0.04 -0.3 0.04 -0.46 c0.08 -1.28 -0.44 -2.36 -1.22 -3.32 c-0.84 -1.04 -1.9 -1.76 -2.88 -2.66 c-0.6 -0.56 -0.82 -1.44 -0.64 -2.24 c0.18 -0.86 1.16 -1.08 1.9 -0.86 c0.22 0.06 0.4 0.16 0.6 0.28 c0.12 0.06 0.24 0.14 0.4 0.14 c0.28 0.02 0.32 -0.2 0.38 -0.42 c0.14 -0.5 0.38 -0.9 0.48 -1.38 c0.1 -0.54 -0.34 -0.64 -0.78 -0.78 c-0.52 -0.14 -1.02 -0.24 -1.56 -0.22 z M25.852 17.82 c0.02 0.62 0.02 1.24 0.04 1.86 c0 0.28 0.02 0.32 0.3 0.32 l1.8 0 c0.38 0 0.3 -0.64 0.28 -0.98 l0.06 -11.2 c0 -0.3 0.1 -0.4 0.5 -0.4 l1.76 0 c0.42 0 0.32 -0.72 0.32 -1.22 c0 -0.44 0.16 -1.2 -0.32 -1.2 c-0.34 0 -3.6 0 -4.94 0.02 c-0.66 0 -1.2 -0.02 -1.86 -0.02 c-0.5 0 -0.48 0.4 -0.48 1.28 c0 0.56 -0.02 1.12 0.46 1.12 c0.28 0 1.42 0 1.74 0.02 c0.2 0 0.34 0.06 0.38 0.28 c0 0.06 0.02 0.12 0.02 0.18 c0 1.44 -0.1 8.14 -0.06 9.94 z M43.578 16.32 c0.12 -0.26 0.22 -0.52 0.32 -0.78 c0.22 -0.64 0.26 -1.3 0.32 -1.96 c0.12 -1.4 0.08 -2.82 -0.28 -4.18 c-0.44 -1.74 -1.56 -3.34 -3.24 -4.08 c-0.76 -0.34 -1.62 -0.38 -2.44 -0.36 c-0.86 0 -1.74 -0.04 -2.6 0.04 c-0.24 0.02 -0.36 0.14 -0.4 0.36 c-0.04 0.24 -0.08 0.48 -0.08 0.7 c0.04 1.22 0 4.84 0.04 5.44 c0.02 0.54 -0.04 1.2 -0.04 1.74 c0.02 1.34 0 2.7 0 4.04 c0 0.56 -0.02 1.1 -0.02 1.66 c0 0.6 -0.22 0.86 1.42 0.86 c1.46 0 2.98 -0.12 4.36 -0.64 c1.28 -0.46 2.08 -1.64 2.64 -2.84 z M37.758 14.24 l0 -2.4 c0 -1.52 0.04 -2.5 -0.02 -3.78 l0 -0.24 c0.02 -0.42 0.08 -0.44 0.52 -0.44 c0.58 -0.02 1 0.12 1.5 0.32 s0.78 0.64 1.04 1.06 c0.5 0.82 0.7 1.72 0.74 2.66 c0.02 0.54 0.04 1.08 0.04 1.62 c0 2.56 -1.5 4.34 -2.82 4.34 c-0.88 0 -1.02 0.06 -1.02 -0.52 c0 -0.6 0.04 -1.2 0.04 -1.8 c-0.02 -0.26 -0.02 -0.54 -0.02 -0.82 z M50.984 18.74 c0 -0.62 -0.48 -1.18 -1.12 -1.24 c-1.36 -0.14 -1.9 1.86 -0.66 2.4 c0.5 0.22 1.12 0.08 1.46 -0.32 c0.22 -0.24 0.32 -0.54 0.32 -0.84 z M59.330000000000005 19.96 l2.68 0 c0.36 0 0.86 0.04 0.88 -0.44 c0 -0.48 0.04 -0.96 0.04 -1.44 c0 -0.42 -0.66 -0.34 -1.04 -0.34 l-2.34 0 c-0.16 0 -0.24 -0.1 -0.18 -0.24 c0.98 -1.86 2.2 -3.58 2.9 -5.6 c0.62 -1.74 0.98 -3.86 -0.26 -5.42 c-1.4 -1.72 -3.72 -1.78 -5.6 -0.82 c-0.4 0.2 -1.5 0.74 -1.1 1.36 c0.28 0.42 0.6 0.86 0.9 1.24 c0.08 0.1 0.22 0.16 0.3 0.06 c0.64 -0.68 1.76 -1.44 2.72 -1.06 c1.68 0.64 1.04 2.84 0.58 4.04 c-0.04 0.08 -0.08 0.16 -0.1 0.24 c-1.14 2.8 -2.94 5.38 -4.42 7.96 c-0.16 0.3 -0.06 0.48 0.28 0.48 c1.3 0 2.44 0 3.76 -0.02 z M75.296 11.9 c0 -1.44 -0.36 -7.1 -4.3 -7.1 c-3.56 0 -4.04 5.28 -4.04 7.08 c0 4.78 1 8.3 4.04 8.3 c4 0 4.3 -6.16 4.3 -8.28 z M72.636 11.88 c0 1.3 0.16 6.08 -1.64 6.08 c-1.52 0 -1.5 -4.56 -1.5 -6.08 c0 -0.84 -0.02 -4.74 1.5 -4.74 c1.66 0 1.64 3.6 1.64 4.74 z M80.742 8.08 c-0.02 0.72 -0.06 11.26 -0.02 11.64 c0.02 0.22 0.02 0.24 0.3 0.24 s1.54 0.02 2.24 0.02 c0.08 0 0.26 0 0.26 -0.28 c0 -1.94 -0.02 -13.68 0 -14.26 c0.02 -0.32 -0.06 -0.42 -0.36 -0.4 c-0.58 0 -1 -0.02 -1.58 0 c-0.14 0 -0.46 0.2 -0.58 0.32 c-0.54 0.42 -0.78 0.5 -1.34 0.96 c-0.12 0.12 -0.14 0.2 -0.14 0.42 c0.04 0.5 0.1 0.98 0.14 1.44 c0.06 0.44 0.18 0.5 0.54 0.2 c0.06 -0.06 0.32 -0.34 0.38 -0.38 c0.04 -0.02 0.1 -0.04 0.12 -0.02 s0.04 0.08 0.04 0.1 z M96.08800000000001 11.9 c0 -1.44 -0.36 -7.1 -4.3 -7.1 c-3.56 0 -4.04 5.28 -4.04 7.08 c0 4.78 1 8.3 4.04 8.3 c4 0 4.3 -6.16 4.3 -8.28 z M93.428 11.88 c0 1.3 0.16 6.08 -1.64 6.08 c-1.52 0 -1.5 -4.56 -1.5 -6.08 c0 -0.84 -0.02 -4.74 1.5 -4.74 c1.66 0 1.64 3.6 1.64 4.74 z"></path></g>
			</g>
		</svg>
	
